<mxfile host="app.diagrams.net" modified="2023-10-01T20:31:05.491Z" agent="Mozilla/5.0 (X11; Linux x86_64) AppleWebKit/537.36 (KHTML, like Gecko) Chrome/117.0.0.0 Safari/537.36" etag="u3PdzHiFiAa7PfVkVhv7" version="22.0.0" type="github">
  <diagram name="Page-1" id="4fc8d65c-f3f6-feb3-4d1c-02f59d9f9886">
    <mxGraphModel dx="795" dy="438" grid="1" gridSize="10" guides="1" tooltips="1" connect="1" arrows="1" fold="1" page="1" pageScale="1" pageWidth="826" pageHeight="1169" background="none" math="0" shadow="0">
      <root>
        <mxCell id="0" />
        <mxCell id="1" parent="0" />
        <mxCell id="2" value="Login" style="whiteSpace=wrap;strokeWidth=2" parent="1" vertex="1">
          <mxGeometry x="36.458333333333236" y="110" width="120" height="60" as="geometry" />
        </mxCell>
        <mxCell id="5" value="Clientes" style="whiteSpace=wrap;strokeWidth=2" parent="1" vertex="1">
          <mxGeometry x="36.458333333333236" y="400" width="120" height="60" as="geometry" />
        </mxCell>
        <mxCell id="8" value="WOM CX&#xa; Fibra" style="whiteSpace=wrap;strokeWidth=3" parent="1" vertex="1">
          <mxGeometry x="680" y="250" width="120" height="60" as="geometry" />
        </mxCell>
        <mxCell id="9" value="" style="edgeStyle=none;strokeWidth=4" parent="1" target="8" edge="1">
          <mxGeometry width="100" height="100" relative="1" as="geometry">
            <mxPoint x="120" y="280" as="sourcePoint" />
            <mxPoint x="240" y="230" as="targetPoint" />
          </mxGeometry>
        </mxCell>
        <mxCell id="12" value="" style="edgeStyle=none;exitX=0.5;exitY=1;strokeWidth=3" parent="1" source="2" edge="1">
          <mxGeometry width="100" height="100" relative="1" as="geometry">
            <mxPoint x="96.45833333333323" y="190" as="sourcePoint" />
            <mxPoint x="156.45833333333323" y="280" as="targetPoint" />
          </mxGeometry>
        </mxCell>
        <mxCell id="15" value="" style="edgeStyle=none;exitX=0.5;exitY=0;strokeWidth=3" parent="1" edge="1">
          <mxGeometry width="100" height="100" relative="1" as="geometry">
            <mxPoint x="96.45833333333323" y="400" as="sourcePoint" />
            <mxPoint x="156.45833333333323" y="280" as="targetPoint" />
          </mxGeometry>
        </mxCell>
        <mxCell id="16" value="" style="edgeStyle=none;endArrow=none;strokeWidth=2" parent="1" edge="1">
          <mxGeometry width="100" height="100" relative="1" as="geometry">
            <mxPoint x="10" y="190" as="sourcePoint" />
            <mxPoint x="106.45833333333323" y="190" as="targetPoint" />
          </mxGeometry>
        </mxCell>
        <mxCell id="17" value="" style="edgeStyle=none;endArrow=none;strokeWidth=2" parent="1" edge="1">
          <mxGeometry width="100" height="100" relative="1" as="geometry">
            <mxPoint x="66.45833333333323" y="246" as="sourcePoint" />
            <mxPoint x="126.45833333333323" y="246" as="targetPoint" />
          </mxGeometry>
        </mxCell>
        <mxCell id="19" value="" style="edgeStyle=none;endArrow=none;strokeWidth=2" parent="1" edge="1">
          <mxGeometry width="100" height="100" relative="1" as="geometry">
            <mxPoint x="106.45833333333323" y="190" as="sourcePoint" />
            <mxPoint x="140" y="190" as="targetPoint" />
          </mxGeometry>
        </mxCell>
        <mxCell id="20" value="" style="edgeStyle=none;endArrow=none;strokeWidth=2" parent="1" edge="1">
          <mxGeometry width="100" height="100" relative="1" as="geometry">
            <mxPoint x="126.45833333333323" y="246" as="sourcePoint" />
            <mxPoint x="160" y="246" as="targetPoint" />
          </mxGeometry>
        </mxCell>
        <mxCell id="25" value="" style="edgeStyle=none;endArrow=none;strokeWidth=2" parent="1" edge="1">
          <mxGeometry width="100" height="100" relative="1" as="geometry">
            <mxPoint x="40" y="330" as="sourcePoint" />
            <mxPoint x="116.45833333333323" y="330" as="targetPoint" />
          </mxGeometry>
        </mxCell>
        <mxCell id="35" value="" style="edgeStyle=none;endArrow=none;strokeWidth=2" parent="1" edge="1">
          <mxGeometry width="100" height="100" relative="1" as="geometry">
            <mxPoint x="116.45833333333323" y="330" as="sourcePoint" />
            <mxPoint x="176.45833333333323" y="330" as="targetPoint" />
          </mxGeometry>
        </mxCell>
        <mxCell id="38" value="" style="edgeStyle=none;endArrow=none;" parent="1" edge="1">
          <mxGeometry width="100" height="100" relative="1" as="geometry">
            <mxPoint x="76.45833333333323" y="210" as="sourcePoint" />
            <mxPoint x="96.45833333333323" y="190" as="targetPoint" />
          </mxGeometry>
        </mxCell>
        <mxCell id="39" value="" style="edgeStyle=none;endArrow=none;" parent="1" edge="1">
          <mxGeometry width="100" height="100" relative="1" as="geometry">
            <mxPoint x="46.458333333333236" y="210" as="sourcePoint" />
            <mxPoint x="66.45833333333323" y="190" as="targetPoint" />
          </mxGeometry>
        </mxCell>
        <mxCell id="44" value="" style="edgeStyle=none;endArrow=none;" parent="1" edge="1">
          <mxGeometry width="100" height="100" relative="1" as="geometry">
            <mxPoint x="95.97608024691348" y="266.369598765432" as="sourcePoint" />
            <mxPoint x="115.97608024691348" y="246.36959876543202" as="targetPoint" />
          </mxGeometry>
        </mxCell>
        <mxCell id="45" value="" style="edgeStyle=none;endArrow=none;" parent="1" edge="1">
          <mxGeometry width="100" height="100" relative="1" as="geometry">
            <mxPoint x="65.97608024691347" y="266.369598765432" as="sourcePoint" />
            <mxPoint x="85.97608024691348" y="246.36959876543202" as="targetPoint" />
          </mxGeometry>
        </mxCell>
        <mxCell id="54" value="" style="edgeStyle=none;endArrow=none;" parent="1" edge="1">
          <mxGeometry width="100" height="100" relative="1" as="geometry">
            <mxPoint x="86.45833333333323" y="350" as="sourcePoint" />
            <mxPoint x="106.45833333333323" y="330" as="targetPoint" />
          </mxGeometry>
        </mxCell>
        <mxCell id="55" value="" style="edgeStyle=none;endArrow=none;" parent="1" edge="1">
          <mxGeometry width="100" height="100" relative="1" as="geometry">
            <mxPoint x="56.45833333333323" y="350" as="sourcePoint" />
            <mxPoint x="76.45833333333323" y="330" as="targetPoint" />
          </mxGeometry>
        </mxCell>
        <mxCell id="121" value="Autorización&#xa;Ejecutivos" style="text;spacingTop=-5;fontSize=6;align=center;verticalAlign=middle;points=[]" parent="1" vertex="1">
          <mxGeometry x="31.458333333333307" y="209.99999999999994" width="30" height="19.999999999999886" as="geometry" />
        </mxCell>
        <mxCell id="122" value="Roles&#xa;Ejecutivo" style="text;spacingTop=-5;fontSize=6;align=center;verticalAlign=middle;points=[]" parent="1" vertex="1">
          <mxGeometry x="66.45833333333317" y="209.99999999999997" width="30" height="19.999999999999886" as="geometry" />
        </mxCell>
        <mxCell id="123" value="OTP" style="text;spacingTop=-5;fontSize=6;align=center;verticalAlign=middle;points=[]" parent="1" vertex="1">
          <mxGeometry x="44.51388888888878" y="266.5277777777777" width="30" height="19.999999999999886" as="geometry" />
        </mxCell>
        <mxCell id="124" value="Teléfono&#xa;Cliente WOM" style="text;spacingTop=-5;fontSize=6;align=center;verticalAlign=middle;points=[]" parent="1" vertex="1">
          <mxGeometry x="79.51388888888863" y="266.5277777777778" width="30" height="19.999999999999886" as="geometry" />
        </mxCell>
        <mxCell id="125" value="Nombres" style="text;spacingTop=-5;fontSize=6;align=center;verticalAlign=middle;points=[]" parent="1" vertex="1">
          <mxGeometry x="31.458333333333222" y="350.4166666666666" width="30" height="19.999999999999886" as="geometry" />
        </mxCell>
        <mxCell id="126" value="Telefono" style="text;spacingTop=-5;fontSize=6;align=center;verticalAlign=middle;points=[]" parent="1" vertex="1">
          <mxGeometry x="66.45833333333306" y="350.4166666666667" width="30" height="19.999999999999886" as="geometry" />
        </mxCell>
        <mxCell id="137" value="Venta Asistida" style="text;spacingTop=-5;fontSize=8;align=center;verticalAlign=middle;points=[]" parent="1" vertex="1">
          <mxGeometry x="152.29166666666654" y="180.0022222222223" width="30" height="19.999999999999886" as="geometry" />
        </mxCell>
        <mxCell id="138" value="Auto Atención" style="text;spacingTop=-5;fontSize=8;align=center;verticalAlign=middle;points=[]" parent="1" vertex="1">
          <mxGeometry x="176.04166666666654" y="236.53222222222217" width="30" height="19.999999999999886" as="geometry" />
        </mxCell>
        <mxCell id="140" value="Datos&#xa;Cliente" style="text;spacingTop=-5;fontSize=8;align=center;verticalAlign=middle;points=[]" parent="1" vertex="1">
          <mxGeometry x="176.04166666666654" y="320.97222222222246" width="30" height="19.999999999999886" as="geometry" />
        </mxCell>
        <mxCell id="143" value="Factibilidades " style="whiteSpace=wrap;strokeWidth=2" parent="1" vertex="1">
          <mxGeometry x="260" y="109.99999999999994" width="120" height="60" as="geometry" />
        </mxCell>
        <mxCell id="144" value="Órdenes" style="whiteSpace=wrap;strokeWidth=2" parent="1" vertex="1">
          <mxGeometry x="260" y="399.99999999999994" width="120" height="60" as="geometry" />
        </mxCell>
        <mxCell id="145" value="" style="edgeStyle=none;exitX=0.5;exitY=1;strokeWidth=3" parent="1" source="143" edge="1">
          <mxGeometry width="100" height="100" relative="1" as="geometry">
            <mxPoint x="320" y="189.99999999999991" as="sourcePoint" />
            <mxPoint x="380" y="279.99999999999994" as="targetPoint" />
          </mxGeometry>
        </mxCell>
        <mxCell id="146" value="" style="edgeStyle=none;exitX=0.5;exitY=0;strokeWidth=3" parent="1" edge="1">
          <mxGeometry width="100" height="100" relative="1" as="geometry">
            <mxPoint x="320.0000000000001" y="399.99999999999994" as="sourcePoint" />
            <mxPoint x="380" y="279.99999999999994" as="targetPoint" />
          </mxGeometry>
        </mxCell>
        <mxCell id="147" value="" style="edgeStyle=none;endArrow=none;strokeWidth=2" parent="1" edge="1">
          <mxGeometry width="100" height="100" relative="1" as="geometry">
            <mxPoint x="270.0000000000001" y="189.99999999999991" as="sourcePoint" />
            <mxPoint x="330" y="189.99999999999991" as="targetPoint" />
          </mxGeometry>
        </mxCell>
        <mxCell id="148" value="" style="edgeStyle=none;endArrow=none;strokeWidth=2" parent="1" edge="1">
          <mxGeometry width="100" height="100" relative="1" as="geometry">
            <mxPoint x="300" y="235.99999999999991" as="sourcePoint" />
            <mxPoint x="359.9999999999999" y="235.99999999999991" as="targetPoint" />
          </mxGeometry>
        </mxCell>
        <mxCell id="150" value="" style="edgeStyle=none;endArrow=none;strokeWidth=2" parent="1" edge="1">
          <mxGeometry width="100" height="100" relative="1" as="geometry">
            <mxPoint x="330" y="189.99999999999991" as="sourcePoint" />
            <mxPoint x="360" y="190" as="targetPoint" />
          </mxGeometry>
        </mxCell>
        <mxCell id="151" value="" style="edgeStyle=none;endArrow=none;strokeWidth=2" parent="1" edge="1">
          <mxGeometry width="100" height="100" relative="1" as="geometry">
            <mxPoint x="359.9999999999999" y="235.99999999999991" as="sourcePoint" />
            <mxPoint x="390" y="236" as="targetPoint" />
          </mxGeometry>
        </mxCell>
        <mxCell id="153" value="" style="edgeStyle=none;endArrow=none;strokeWidth=2" parent="1" edge="1">
          <mxGeometry width="100" height="100" relative="1" as="geometry">
            <mxPoint x="300" y="298" as="sourcePoint" />
            <mxPoint x="370.0000000000001" y="297.99999999999994" as="targetPoint" />
          </mxGeometry>
        </mxCell>
        <mxCell id="154" value="" style="edgeStyle=none;endArrow=none;strokeWidth=2" parent="1" edge="1">
          <mxGeometry width="100" height="100" relative="1" as="geometry">
            <mxPoint x="270" y="340" as="sourcePoint" />
            <mxPoint x="349.9999999999999" y="339.99999999999994" as="targetPoint" />
          </mxGeometry>
        </mxCell>
        <mxCell id="155" value="" style="edgeStyle=none;endArrow=none;strokeWidth=2" parent="1" edge="1">
          <mxGeometry width="100" height="100" relative="1" as="geometry">
            <mxPoint x="270.0000000000001" y="379.99999999999994" as="sourcePoint" />
            <mxPoint x="330" y="379.99999999999994" as="targetPoint" />
          </mxGeometry>
        </mxCell>
        <mxCell id="156" value="" style="edgeStyle=none;endArrow=none;strokeWidth=2" parent="1" edge="1">
          <mxGeometry width="100" height="100" relative="1" as="geometry">
            <mxPoint x="370.0000000000001" y="297.99999999999994" as="sourcePoint" />
            <mxPoint x="400" y="298" as="targetPoint" />
          </mxGeometry>
        </mxCell>
        <mxCell id="157" value="" style="edgeStyle=none;endArrow=none;strokeWidth=2" parent="1" edge="1">
          <mxGeometry width="100" height="100" relative="1" as="geometry">
            <mxPoint x="349.9999999999999" y="339.99999999999994" as="sourcePoint" />
            <mxPoint x="380" y="340" as="targetPoint" />
          </mxGeometry>
        </mxCell>
        <mxCell id="158" value="" style="edgeStyle=none;endArrow=none;strokeWidth=2" parent="1" edge="1">
          <mxGeometry width="100" height="100" relative="1" as="geometry">
            <mxPoint x="330" y="379.99999999999994" as="sourcePoint" />
            <mxPoint x="390" y="379.99999999999994" as="targetPoint" />
          </mxGeometry>
        </mxCell>
        <mxCell id="159" value="" style="edgeStyle=none;endArrow=none;" parent="1" edge="1">
          <mxGeometry width="100" height="100" relative="1" as="geometry">
            <mxPoint x="299.9999999999999" y="209.9999999999998" as="sourcePoint" />
            <mxPoint x="320.0000000000001" y="189.99999999999991" as="targetPoint" />
          </mxGeometry>
        </mxCell>
        <mxCell id="160" value="" style="edgeStyle=none;endArrow=none;" parent="1" edge="1">
          <mxGeometry width="100" height="100" relative="1" as="geometry">
            <mxPoint x="270.0000000000001" y="209.9999999999998" as="sourcePoint" />
            <mxPoint x="290" y="189.99999999999991" as="targetPoint" />
          </mxGeometry>
        </mxCell>
        <mxCell id="166" value="" style="edgeStyle=none;endArrow=none;" parent="1" edge="1">
          <mxGeometry width="100" height="100" relative="1" as="geometry">
            <mxPoint x="289.51774691358014" y="256.36959876543176" as="sourcePoint" />
            <mxPoint x="309.51774691358037" y="236.36959876543202" as="targetPoint" />
          </mxGeometry>
        </mxCell>
        <mxCell id="167" value="" style="edgeStyle=none;endArrow=none;" parent="1" edge="1">
          <mxGeometry width="100" height="100" relative="1" as="geometry">
            <mxPoint x="370.0000000000001" y="379.99999999999994" as="sourcePoint" />
            <mxPoint x="390" y="359.99999999999994" as="targetPoint" />
          </mxGeometry>
        </mxCell>
        <mxCell id="168" value="" style="edgeStyle=none;endArrow=none;" parent="1" edge="1">
          <mxGeometry width="100" height="100" relative="1" as="geometry">
            <mxPoint x="340" y="379.99999999999994" as="sourcePoint" />
            <mxPoint x="360" y="359.99999999999994" as="targetPoint" />
          </mxGeometry>
        </mxCell>
        <mxCell id="171" value="" style="edgeStyle=none;endArrow=none;" parent="1" edge="1">
          <mxGeometry width="100" height="100" relative="1" as="geometry">
            <mxPoint x="320.0000000000001" y="359.99999999999994" as="sourcePoint" />
            <mxPoint x="340" y="339.99999999999994" as="targetPoint" />
          </mxGeometry>
        </mxCell>
        <mxCell id="172" value="" style="edgeStyle=none;endArrow=none;" parent="1" edge="1">
          <mxGeometry width="100" height="100" relative="1" as="geometry">
            <mxPoint x="320.0000000000001" y="359.99999999999994" as="sourcePoint" />
            <mxPoint x="340" y="339.99999999999994" as="targetPoint" />
          </mxGeometry>
        </mxCell>
        <mxCell id="173" value="" style="edgeStyle=none;endArrow=none;" parent="1" edge="1">
          <mxGeometry width="100" height="100" relative="1" as="geometry">
            <mxPoint x="290" y="359.99999999999994" as="sourcePoint" />
            <mxPoint x="310" y="339.99999999999994" as="targetPoint" />
          </mxGeometry>
        </mxCell>
        <mxCell id="174" value="" style="edgeStyle=none;endArrow=none;" parent="1" edge="1">
          <mxGeometry width="100" height="100" relative="1" as="geometry">
            <mxPoint x="330" y="317.99999999999994" as="sourcePoint" />
            <mxPoint x="350" y="297.99999999999994" as="targetPoint" />
          </mxGeometry>
        </mxCell>
        <mxCell id="175" value="" style="edgeStyle=none;endArrow=none;" parent="1" edge="1">
          <mxGeometry width="100" height="100" relative="1" as="geometry">
            <mxPoint x="300" y="317.99999999999994" as="sourcePoint" />
            <mxPoint x="320" y="297.99999999999994" as="targetPoint" />
          </mxGeometry>
        </mxCell>
        <mxCell id="182" value="Normalizada" style="text;spacingTop=-5;fontSize=6;align=center;verticalAlign=middle;points=[]" parent="1" vertex="1">
          <mxGeometry x="255.00000000000009" y="209.99999999999986" width="30" height="19.999999999999886" as="geometry" />
        </mxCell>
        <mxCell id="183" value="Manual" style="text;spacingTop=-5;fontSize=6;align=center;verticalAlign=middle;points=[]" parent="1" vertex="1">
          <mxGeometry x="289.99999999999994" y="209.9999999999999" width="30" height="19.999999999999886" as="geometry" />
        </mxCell>
        <mxCell id="184" value="Motor Crédito" style="text;spacingTop=-5;fontSize=6;align=center;verticalAlign=middle;points=[]" parent="1" vertex="1">
          <mxGeometry x="268.05555555555554" y="256.5277777777776" width="30" height="19.999999999999886" as="geometry" />
        </mxCell>
        <mxCell id="186" value="Calendario&#xa;fechas&#xa;disponibles" style="text;spacingTop=-5;fontSize=6;align=center;verticalAlign=middle;points=[]" parent="1" vertex="1">
          <mxGeometry x="275" y="318.4166666666665" width="30" height="19.999999999999886" as="geometry" />
        </mxCell>
        <mxCell id="187" value="Recomendador" style="text;spacingTop=-5;fontSize=6;align=center;verticalAlign=middle;points=[]" parent="1" vertex="1">
          <mxGeometry x="309.99999999999983" y="318.41666666666663" width="30" height="19.999999999999886" as="geometry" />
        </mxCell>
        <mxCell id="188" value="Tipo&#xa;Firma" style="text;spacingTop=-5;fontSize=6;align=center;verticalAlign=middle;points=[]" parent="1" vertex="1">
          <mxGeometry x="263.05555555555554" y="360.9722222222221" width="30" height="19.999999999999886" as="geometry" />
        </mxCell>
        <mxCell id="189" value="Tipo&#xa;Documento&#xa;Tributario" style="text;spacingTop=-5;fontSize=6;align=center;verticalAlign=middle;points=[]" parent="1" vertex="1">
          <mxGeometry x="298.05555555555543" y="360.97222222222223" width="30" height="19.999999999999886" as="geometry" />
        </mxCell>
        <mxCell id="196" value="Creación&#xa;Cliente" style="text;spacingTop=-5;fontSize=6;align=center;verticalAlign=middle;points=[]" parent="1" vertex="1">
          <mxGeometry x="349.5833333333333" y="345.4166666666666" width="30" height="19.999999999999886" as="geometry" />
        </mxCell>
        <mxCell id="197" value="Nro&#xa;Órden" style="text;spacingTop=-5;fontSize=6;align=center;verticalAlign=middle;points=[]" parent="1" vertex="1">
          <mxGeometry x="384.58333333333314" y="345.4166666666667" width="30" height="19.999999999999886" as="geometry" />
        </mxCell>
        <mxCell id="198" value="Dirección" style="text;spacingTop=-5;fontSize=8;align=center;verticalAlign=middle;points=[]" parent="1" vertex="1">
          <mxGeometry x="366.3933333333333" y="180.0022222222222" width="30" height="19.999999999999886" as="geometry" />
        </mxCell>
        <mxCell id="199" value="Factibilidad&#xa;Económica" style="text;spacingTop=-5;fontSize=8;align=center;verticalAlign=middle;points=[]" parent="1" vertex="1">
          <mxGeometry x="399.5833333333333" y="221.5322222222221" width="30" height="19.999999999999886" as="geometry" />
        </mxCell>
        <mxCell id="201" value="Agendamiento" style="text;spacingTop=-5;fontSize=8;align=center;verticalAlign=middle;points=[]" parent="1" vertex="1">
          <mxGeometry x="412.5833333333333" y="288.9722222222224" width="30" height="19.999999999999886" as="geometry" />
        </mxCell>
        <mxCell id="202" value="Firmas" style="text;spacingTop=-5;fontSize=8;align=center;verticalAlign=middle;points=[]" parent="1" vertex="1">
          <mxGeometry x="380.0033333333333" y="328.33222222222196" width="30" height="19.999999999999886" as="geometry" />
        </mxCell>
        <mxCell id="203" value="Finalización&#xa;venta" style="text;spacingTop=-5;fontSize=8;align=center;verticalAlign=middle;points=[]" parent="1" vertex="1">
          <mxGeometry x="399.3933333333334" y="373.0022222222224" width="30" height="19.999999999999886" as="geometry" />
        </mxCell>
        <mxCell id="204" value="Productos" style="whiteSpace=wrap;strokeWidth=2" parent="1" vertex="1">
          <mxGeometry x="475.8333333333331" y="111.52777777777752" width="120" height="60" as="geometry" />
        </mxCell>
        <mxCell id="206" value="" style="edgeStyle=none;exitX=0.5;exitY=1;strokeWidth=3" parent="1" source="204" edge="1">
          <mxGeometry width="100" height="100" relative="1" as="geometry">
            <mxPoint x="535.8333333333331" y="191.52777777777752" as="sourcePoint" />
            <mxPoint x="595.8333333333331" y="281.52777777777754" as="targetPoint" />
          </mxGeometry>
        </mxCell>
        <mxCell id="208" value="" style="edgeStyle=none;endArrow=none;strokeWidth=2" parent="1" edge="1">
          <mxGeometry width="100" height="100" relative="1" as="geometry">
            <mxPoint x="485.8333333333332" y="191.52777777777752" as="sourcePoint" />
            <mxPoint x="545.8333333333331" y="191.52777777777752" as="targetPoint" />
          </mxGeometry>
        </mxCell>
        <mxCell id="210" value="" style="edgeStyle=none;endArrow=none;strokeWidth=2" parent="1" edge="1">
          <mxGeometry width="100" height="100" relative="1" as="geometry">
            <mxPoint x="525.8333333333331" y="261.52777777777754" as="sourcePoint" />
            <mxPoint x="585.8333333333333" y="261.52777777777754" as="targetPoint" />
          </mxGeometry>
        </mxCell>
        <mxCell id="211" value="" style="edgeStyle=none;endArrow=none;strokeWidth=2" parent="1" edge="1">
          <mxGeometry width="100" height="100" relative="1" as="geometry">
            <mxPoint x="545.8333333333331" y="191.52777777777752" as="sourcePoint" />
            <mxPoint x="580" y="192" as="targetPoint" />
          </mxGeometry>
        </mxCell>
        <mxCell id="213" value="" style="edgeStyle=none;endArrow=none;strokeWidth=2" parent="1" edge="1">
          <mxGeometry width="100" height="100" relative="1" as="geometry">
            <mxPoint x="585.8333333333333" y="261.52777777777754" as="sourcePoint" />
            <mxPoint x="645.8333333333331" y="261.52777777777754" as="targetPoint" />
          </mxGeometry>
        </mxCell>
        <mxCell id="220" value="" style="edgeStyle=none;endArrow=none;" parent="1" edge="1">
          <mxGeometry width="100" height="100" relative="1" as="geometry">
            <mxPoint x="527.833333333333" y="211.5277777777774" as="sourcePoint" />
            <mxPoint x="547.8333333333333" y="191.52777777777752" as="targetPoint" />
          </mxGeometry>
        </mxCell>
        <mxCell id="221" value="" style="edgeStyle=none;endArrow=none;" parent="1" edge="1">
          <mxGeometry width="100" height="100" relative="1" as="geometry">
            <mxPoint x="485.8333333333332" y="211.5277777777774" as="sourcePoint" />
            <mxPoint x="505.8333333333331" y="191.52777777777752" as="targetPoint" />
          </mxGeometry>
        </mxCell>
        <mxCell id="222" value="" style="edgeStyle=none;endArrow=none;" parent="1" edge="1">
          <mxGeometry width="100" height="100" relative="1" as="geometry">
            <mxPoint x="595.8333333333331" y="261.52777777777754" as="sourcePoint" />
            <mxPoint x="615.833333333333" y="241.52777777777752" as="targetPoint" />
          </mxGeometry>
        </mxCell>
        <mxCell id="223" value="" style="edgeStyle=none;endArrow=none;" parent="1" edge="1">
          <mxGeometry width="100" height="100" relative="1" as="geometry">
            <mxPoint x="625.8333333333331" y="261.52777777777754" as="sourcePoint" />
            <mxPoint x="645.8333333333331" y="241.52777777777752" as="targetPoint" />
          </mxGeometry>
        </mxCell>
        <mxCell id="239" value="Planes&#xa;disponibles" style="text;spacingTop=-5;fontSize=8;align=center;verticalAlign=middle;points=[]" parent="1" vertex="1">
          <mxGeometry x="487.8333333333331" y="250.41777777777764" width="30" height="19.999999999999886" as="geometry" />
        </mxCell>
        <mxCell id="243" value="Modificar &#xa;carro de compra" style="text;spacingTop=-5;fontSize=6;align=center;verticalAlign=middle;points=[]" parent="1" vertex="1">
          <mxGeometry x="470.8333333333332" y="211.52777777777746" width="30" height="19.999999999999886" as="geometry" />
        </mxCell>
        <mxCell id="244" value="Resumen&#xa;pedido" style="text;spacingTop=-5;fontSize=6;align=center;verticalAlign=middle;points=[]" parent="1" vertex="1">
          <mxGeometry x="517.833333333333" y="211.5277777777775" width="30" height="19.999999999999886" as="geometry" />
        </mxCell>
        <mxCell id="253" value="Detalle&#xa;Plan" style="text;spacingTop=-5;fontSize=6;align=center;verticalAlign=middle;points=[]" parent="1" vertex="1">
          <mxGeometry x="602.2222222222221" y="220.41666666666634" width="30" height="19.999999999999886" as="geometry" />
        </mxCell>
        <mxCell id="254" value="Según&#xa;factibilidad" style="text;spacingTop=-5;fontSize=6;align=center;verticalAlign=middle;points=[]" parent="1" vertex="1">
          <mxGeometry x="637.222222222222" y="220.41666666666646" width="30" height="19.999999999999886" as="geometry" />
        </mxCell>
        <mxCell id="259" value="Carro&#xa; de compra" style="text;spacingTop=-5;fontSize=8;align=center;verticalAlign=middle;points=[]" parent="1" vertex="1">
          <mxGeometry x="584.2266666666665" y="179.9999999999998" width="30" height="19.999999999999886" as="geometry" />
        </mxCell>
        <mxCell id="qjG3VRuExh7L7--05ZH--264" value="" style="edgeStyle=none;endArrow=none;" edge="1" parent="1">
          <mxGeometry width="100" height="100" relative="1" as="geometry">
            <mxPoint x="16.45833333333323" y="210" as="sourcePoint" />
            <mxPoint x="36.45833333333323" y="190" as="targetPoint" />
          </mxGeometry>
        </mxCell>
        <mxCell id="qjG3VRuExh7L7--05ZH--265" value="Canal&#xa;Ejecutivo" style="text;spacingTop=-5;fontSize=6;align=center;verticalAlign=middle;points=[]" vertex="1" parent="1">
          <mxGeometry x="1.4583333333333073" y="209.99999999999994" width="30" height="19.999999999999886" as="geometry" />
        </mxCell>
        <mxCell id="qjG3VRuExh7L7--05ZH--266" value="" style="edgeStyle=none;endArrow=none;" edge="1" parent="1">
          <mxGeometry width="100" height="100" relative="1" as="geometry">
            <mxPoint x="339.51774691358014" y="256.36959876543176" as="sourcePoint" />
            <mxPoint x="359.51774691358037" y="236.36959876543202" as="targetPoint" />
          </mxGeometry>
        </mxCell>
        <mxCell id="qjG3VRuExh7L7--05ZH--267" value="Planes disponibles &#xa;acorde a factibilidad" style="text;spacingTop=-5;fontSize=6;align=center;verticalAlign=middle;points=[]" vertex="1" parent="1">
          <mxGeometry x="318.05555555555554" y="256.5277777777776" width="30" height="19.999999999999886" as="geometry" />
        </mxCell>
        <mxCell id="qjG3VRuExh7L7--05ZH--268" value="" style="edgeStyle=none;endArrow=none;" edge="1" parent="1">
          <mxGeometry width="100" height="100" relative="1" as="geometry">
            <mxPoint x="26.45833333333323" y="350" as="sourcePoint" />
            <mxPoint x="46.45833333333323" y="330" as="targetPoint" />
          </mxGeometry>
        </mxCell>
        <mxCell id="qjG3VRuExh7L7--05ZH--269" value="Email" style="text;spacingTop=-5;fontSize=6;align=center;verticalAlign=middle;points=[]" vertex="1" parent="1">
          <mxGeometry x="6.458333333333059" y="350.4166666666667" width="30" height="19.999999999999886" as="geometry" />
        </mxCell>
        <mxCell id="qjG3VRuExh7L7--05ZH--270" value="" style="edgeStyle=none;endArrow=none;" edge="1" parent="1">
          <mxGeometry width="100" height="100" relative="1" as="geometry">
            <mxPoint x="260" y="359.99999999999994" as="sourcePoint" />
            <mxPoint x="280" y="339.99999999999994" as="targetPoint" />
          </mxGeometry>
        </mxCell>
        <mxCell id="qjG3VRuExh7L7--05ZH--271" value="Adjuntar&#xa;Documentos" style="text;spacingTop=-5;fontSize=6;align=center;verticalAlign=middle;points=[]" vertex="1" parent="1">
          <mxGeometry x="233.05555555555554" y="360.9722222222221" width="30" height="19.999999999999886" as="geometry" />
        </mxCell>
      </root>
    </mxGraphModel>
  </diagram>
</mxfile>
